# xmcd CD database file
#
# Track frame offsets:
#	150
#	34255
#	39665
#	60520
#	89626
#	101353
#	128955
#	153055
#	154947
#	167504
#	184250
#	221561
#	223653
#	238440
#	257184
#	296719
#	301635
#
# Disc length: 4437 seconds
#
# Revision: 0
# Processed by: cddbd v1.4PL0 Copyright (c) Steve Scherf et al.
# Submitted via: CDex 1.50Beta5
#
DISCID=f5115311
DTITLE=Zipflo Weinrich - Momente
DYEAR=1997
DGENRE=Jazz
TTITLE0=Satin Doll
TTITLE1=Introduction: Zipflo Weinrich
TTITLE2=Bernie's Tune
TTITLE3=Bokus Blues
TTITLE4=Yardbird Suite
TTITLE5=G - Moll Blues
TTITLE6=Pent - Up House
TTITLE7=Introduction: Zipflo Weinrich
TTITLE8=Meet The Flintstones
TTITLE9=But Not For Me
TTITLE10=Yesterdays
TTITLE11=Introduction: Zipflo Weinrich
TTITLE12=Gisela (Hallo kleines Fräulein)
TTITLE13=All Of Me
TTITLE14=Sweet Georgia Brown
TTITLE15=Introduction: Zipflo Weinrich and Angus Thomas
TTITLE16=Sweet Home Chicago
EXTD=YEAR: 1997
EXTT0=
EXTT1=
EXTT2=
EXTT3=
EXTT4=
EXTT5=
EXTT6=
EXTT7=
EXTT8=
EXTT9=
EXTT10=
EXTT11=
EXTT12=
EXTT13=
EXTT14=
EXTT15=
EXTT16=
PLAYORDER=
